# xmcd
#
# Track frame offsets: 
#        150
#        17657
#        36010
#        55465
#        73235
#        89645
#        108275
#        127622
#        145865
#        166185
#        184660
#
# Disc length: 2760 seconds
#
# Revision: 3
# Processed by: cddbd v1.5.2PL0 Copyright (c) Steve Scherf et al.
# Submitted via: ExactAudioCopy v1.3
#
DISCID=900ac60b
DTITLE=Matia Bazar - Dolce Canto
DYEAR=2001
DGENRE=Pop Italiano
TTITLE0=Questa Nostra Grande Storia D'amore
TTITLE1=Per Te
TTITLE2=Via Da Me
TTITLE3=Dolce Canto
TTITLE4=Manchi Solu Tu
TTITLE5=Accanto A Te
TTITLE6=Cambierà
TTITLE7=C'è Tutto Un Mondo Intorno
TTITLE8=La Prima Stella Della Sera
TTITLE9=Stasera Che Sera
TTITLE10=Midnight
EXTD=YEAR: 2001
EXTT0=
EXTT1=
EXTT2=
EXTT3=
EXTT4=
EXTT5=
EXTT6=
EXTT7=
EXTT8=
EXTT9=
EXTT10=
PLAYORDER=
